<svg height="15.445383mm" viewBox="0 0 36.375137 15.445383" width="36.375137mm" xmlns="http://www.w3.org/2000/svg" xmlns:xlink="http://www.w3.org/1999/xlink"><clipPath id="a"><path d="m6.827 6.827h623.622v870.236h-623.622z"/></clipPath><clipPath id="b"><path d="m6.827 6.827h623.622v870.236h-623.622z"/></clipPath><g fill="#131313"><path d="m0 0 20.222 11.675v17.404l-1.764-.656v-15.73l-18.458-10.657-18.458 10.657v21.313l18.458 10.658 18.458-10.658v-3.506l1.764.773v3.752l-20.222 11.676-20.222-11.676v-23.35z" transform="matrix(-.33072917 0 0 .33072917 6.68801 0)"/><g clip-path="url(#b)" transform="matrix(-.33072917 0 0 .33072917 49.92969 -261.99895)"><path d="m0 0 8.857 5.114.36.208 7.176 4.143v13.815l-27.132-10.135-.041.099 27.173 11.873v3.275l-6.141 3.545-1.076.622-9.176 5.297-4.794-2.768-.845-.487-6.823-3.94-1.001-.578-2.929-1.691v-18.927zm14.618 21.284c.358 0 .649-.291.649-.649 0-.36-.291-.65-.649-.65-.36 0-.65.29-.65.65 0 .358.29.649.65.649m-1.062-9.755c0-.359-.291-.65-.65-.65-.358 0-.648.291-.648.65s.29.649.648.649c.359 0 .65-.29.65-.649m-1.414 5.625c.664 0 1.205-.54 1.205-1.207 0-.665-.541-1.205-1.205-1.205-.666 0-1.207.54-1.207 1.205 0 .667.541 1.207 1.207 1.207m-1.826-9.773c0-.358-.291-.65-.649-.65s-.65.292-.65.65.292.649.65.649.649-.291.649-.649m-1.093 3.662c0-.359-.29-.649-.648-.649-.359 0-.649.29-.649.649s.29.65.649.65c.358 0 .648-.291.648-.65m-.949 7.346c.357 0 .648-.29.648-.649 0-.358-.291-.648-.648-.648-.359 0-.65.29-.65.648 0 .359.291.649.65.649m-1.719-3.473c.358 0 .648-.291.648-.65s-.29-.65-.648-.65c-.359 0-.649.291-.649.65s.29.65.649.65m-2.016-7.866c.36 0 .65-.291.65-.65 0-.358-.29-.649-.65-.649-.358 0-.649.291-.649.649 0 .359.291.65.649.65m-1.798 9.75c.359 0 .649-.29.649-.65 0-.358-.29-.65-.649-.65-.358 0-.648.292-.648.65 0 .36.29.65.648.65m-.552-5.048c.358 0 .649-.291.649-.649 0-.359-.291-.65-.649-.65-.36 0-.65.291-.65.65 0 .358.29.649.65.649m-1.317-7.611c.666 0 1.206-.539 1.206-1.206 0-.665-.54-1.206-1.206-1.206s-1.205.541-1.205 1.206c0 .667.539 1.206 1.205 1.206m-1.726 3.67c.358 0 .649-.292.649-.65s-.291-.65-.649-.65-.649.292-.649.65.291.65.649.65m-1.659 5.738c.358 0 .648-.29.648-.648 0-.36-.29-.65-.648-.65-.359 0-.649.29-.649.65 0 .358.29.648.649.648m-1.554-3.872c.359 0 .65-.29.65-.649 0-.358-.291-.648-.65-.648s-.649.29-.649.648c0 .359.29.649.649.649m-.798-4.701c.36 0 .65-.291.65-.65 0-.358-.29-.649-.65-.649-.357 0-.648.291-.648.649 0 .359.291.65.648.65m-3.03 7.119c.667 0 1.205-.541 1.205-1.207 0-.665-.538-1.205-1.205-1.205-.666 0-1.206.54-1.206 1.205 0 .666.54 1.207 1.206 1.207m-1.463-4.216c.358 0 .648-.29.648-.649s-.29-.649-.648-.649c-.359 0-.649.29-.649.649s.29.649.649.649m23.647 19.361c.358 0 .649-.29.649-.648 0-.36-.291-.65-.649-.65s-.649.29-.649.65c0 .358.291.648.649.648m-4.108 2.186c.358 0 .649-.29.649-.65 0-.358-.291-.649-.649-.649-.359 0-.649.291-.649.649 0 .36.29.65.649.65m-1.121-4.191c.36 0 .65-.291.65-.649s-.29-.649-.65-.649c-.357 0-.649.291-.649.649s.292.649.649.649m-3.232 5.082c.357 0 .648-.291.648-.649 0-.359-.291-.649-.648-.649-.359 0-.65.29-.65.649 0 .358.291.649.65.649m.47-4.763c0-.666-.54-1.207-1.205-1.207-.666 0-1.206.541-1.206 1.207s.54 1.206 1.206 1.206c.665 0 1.205-.54 1.205-1.206m-2.279 8.675c.358 0 .648-.292.648-.649 0-.359-.29-.65-.648-.65-.359 0-.65.291-.65.65 0 .357.291.649.65.649m-1.347-12.037c.36 0 .65-.289.65-.649 0-.358-.29-.648-.65-.648-.357 0-.649.29-.649.648 0 .36.292.649.649.649m-1.866 8.418c0-.357-.29-.649-.648-.649-.359 0-.649.292-.649.649 0 .36.29.651.649.651.358 0 .648-.291.648-.651m-1.396 6.192c.359 0 .649-.29.649-.649s-.29-.65-.649-.65-.65.291-.65.65.291.649.65.649m-.525-11.586c.358 0 .649-.29.649-.65 0-.358-.291-.649-.649-.649s-.649.291-.649.649c0 .36.291.65.649.65m-1.579-5.678c0-.358-.29-.65-.65-.65-.357 0-.648.292-.648.65s.291.65.648.65c.36 0 .65-.292.65-.65m-1.378 13.095c.359 0 .649-.291.649-.65s-.29-.649-.649-.649c-.358 0-.65.29-.65.649s.292.65.65.65m-.219-3.853c.359 0 .649-.291.649-.649 0-.36-.29-.649-.649-.649-.358 0-.649.289-.649.649 0 .358.291.649.649.649m-3.892-9.822c-.359 0-.649.291-.649.649 0 .359.29.649.649.649.358 0 .649-.29.649-.649 0-.358-.291-.649-.649-.649m.968 6.35c.666 0 1.206-.54 1.206-1.206s-.54-1.207-1.206-1.207-1.207.541-1.207 1.207.541 1.206 1.207 1.206m-1.66 6.565c.359 0 .65-.291.65-.649 0-.359-.291-.649-.65-.649-.358 0-.649.29-.649.649 0 .358.291.649.649.649m-.068-3.665c.358 0 .648-.29.648-.649s-.29-.65-.648-.65c-.359 0-.65.291-.65.65s.291.649.65.649m-1.495-11.712c0-.36-.291-.65-.65-.65-.357 0-.649.29-.649.65 0 .358.292.649.649.649.359 0 .65-.291.65-.649m-1.618 5.766c.359 0 .649-.291.649-.649 0-.359-.29-.649-.649-.649-.358 0-.648.29-.648.649 0 .358.29.649.648.649m-.042-12.474c0-.358-.29-.649-.65-.649-.357 0-.648.291-.648.649 0 .36.291.65.648.65.36 0 .65-.29.65-.65m-.941 8.644c0-.358-.29-.649-.649-.649-.358 0-.65.291-.65.649 0 .359.292.649.65.649.359 0 .649-.29.649-.649m-1.26 8.279c.358 0 .649-.292.649-.649 0-.358-.291-.65-.649-.65-.359 0-.65.292-.65.65 0 .357.291.649.65.649m-.038-12.151c.359 0 .649-.29.649-.65 0-.358-.29-.649-.649-.649-.358 0-.65.291-.65.649 0 .36.292.65.65.65" fill="#131313" transform="translate(130.7465 796.6072)"/></g><path d="m0 0 8.341-8.869h1.531v10.139h-1.541-.8v-1.27h.8v-1.368-.664-1.27-1.474-1.984l-3.245 3.458h2.402v1.27h-3.594l-3.099 3.302h-.795-.8v-1.27z" transform="matrix(-.33072917 0 0 .33072917 36.11056 8.97546)"/><path d="m0 0h-1.258v-.697-2.545h1.258v1.015z" transform="matrix(-.33072917 0 0 .33072917 18.40475 7.11455)"/><g clip-path="url(#a)" transform="matrix(-.33072917 0 0 .33072917 49.92969 -261.99895)"><path d="m0 0c.063.256.151.501.263.734.62 1.297 1.943 2.192 3.477 2.192 1.533 0 2.857-.895 3.477-2.192.112-.233.2-.478.262-.734.074-.297.114-.607.114-.926 0-.664-.168-1.287-.463-1.832-.652-1.204-1.925-2.021-3.39-2.021-.984 0-1.878.376-2.559.984v-1.762c.754-.415 1.619-.655 2.54-.655 2.275 0 4.214 1.437 4.959 3.454.211.571.326 1.187.326 1.832 0 .316-.029.625-.081.926-.045.251-.108.497-.186.734-.696 2.106-2.679 3.625-5.018 3.625-2.338 0-4.321-1.519-5.017-3.625z" transform="translate(94.9818 816.4556)"/><path d="m0 0c.224 1.916 1.849 3.403 3.825 3.403 2.128 0 3.852-1.725 3.852-3.853s-1.724-3.852-3.852-3.852c-1.996 0-3.637 1.517-3.833 3.46h-1.452c.202-2.735 2.479-4.894 5.266-4.894 2.919 0 5.285 2.366 5.285 5.286 0 2.919-2.366 5.285-5.285 5.285-2.768 0-5.034-2.126-5.263-4.835z" transform="translate(83.8733 815.9929)"/></g><path d="m0 0h.799v1.269h-3.131v-1.269h.799z" transform="matrix(-.33072917 0 0 .33072917 31.01876 8.98727)"/><path d="m0 0h3.132 2.569v1.315.8h-1.257v-.8h-1.312-.8v6.747h-1.533v-6.747h-.799-1.266v.8h-1.258v-.8-1.315z" transform="matrix(-.33072917 0 0 .33072917 31.79002 6.04226)"/><path d="m0 0h4.34v-3.294h-4.529v-1.269h4.529v-1.792-1.233-1.282h1.533.799v1.281h-.799v7.578l.785.011v1.27h-.799-1.519-5.61v-1.27-.8h1.27z" transform="matrix(-.33072917 0 0 .33072917 29.27813 8.97546)"/><path d="m0 0v1.282h-3.498v.8h-1.27v-.8-1.283z" transform="matrix(-.33072917 0 0 .33072917 28.12137 6.04193)"/><path d="m0 0v.001h.799v1.27h-.799-1.453v-.001h-.8v-1.27h.8z" transform="matrix(-.33072917 0 0 .33072917 26.12426 8.97546)"/><path d="m0 0h1.453l.159.001h.836l2.708 6.952 2.708-6.952h.836l.16-.001h1.452.8v1.27h-.8v7.599h.8v1.27h-.8v.001h-1.452-.8v-1.27h.8v-7.581l-3.545 9.013h-.159-.159l-3.544-9.013v6.738h-1.453v-6.757h-.799v-1.27z" transform="matrix(-.33072917 0 0 .33072917 26.60498 6.04226)"/></g></svg>