<?xml version="1.0" encoding="UTF-8" standalone="no"?>
<svg
   xmlns:dc="http://purl.org/dc/elements/1.1/"
   xmlns:cc="http://creativecommons.org/ns#"
   xmlns:rdf="http://www.w3.org/1999/02/22-rdf-syntax-ns#"
   xmlns:svg="http://www.w3.org/2000/svg"
   xmlns="http://www.w3.org/2000/svg"
   xmlns:sodipodi="http://sodipodi.sourceforge.net/DTD/sodipodi-0.dtd"
   xmlns:inkscape="http://www.inkscape.org/namespaces/inkscape"
   version="1.0"
   width="67.903893pt"
   height="86.519104pt"
   viewBox="0 0 67.903893 86.519104"
   preserveAspectRatio="xMidYMid meet"
   id="svg26"
   sodipodi:docname="graphic.svg"
   inkscape:version="0.92.1 r15371">
  <metadata
     id="metadata32">
    <rdf:RDF>
      <cc:Work
         rdf:about="">
        <dc:format>image/svg+xml</dc:format>
        <dc:type
           rdf:resource="http://purl.org/dc/dcmitype/StillImage" />
        <dc:title></dc:title>
      </cc:Work>
    </rdf:RDF>
  </metadata>
  <defs
     id="defs30" />
  <sodipodi:namedview
     pagecolor="#ffffff"
     bordercolor="#666666"
     borderopacity="1"
     objecttolerance="10"
     gridtolerance="10"
     guidetolerance="10"
     inkscape:pageopacity="0"
     inkscape:pageshadow="2"
     inkscape:window-width="1920"
     inkscape:window-height="1036"
     id="namedview28"
     showgrid="true"
     showguides="true"
     inkscape:guide-bbox="true"
     inkscape:zoom="4"
     inkscape:cx="38.644563"
     inkscape:cy="33.865989"
     inkscape:window-x="0"
     inkscape:window-y="0"
     inkscape:window-maximized="1"
     inkscape:current-layer="g4910"
     fit-margin-top="0"
     fit-margin-left="0"
     fit-margin-right="0"
     fit-margin-bottom="0">
    <inkscape:grid
       type="xygrid"
       id="grid5329"
       originx="-25.227664"
       originy="-39.357064" />
  </sodipodi:namedview>
  <path
     inkscape:connector-curvature="0"
     style="fill:#005500;stroke:none;stroke-width:0.1"
     id="path2"
     d="m 21.772336,1.3761698 c -7.2,2.3 -13.9999995,8.2 -17.6999995,15.4000002 -13.1,25.3 13.5999995,53.4 39.1999995,41.2 3.8,-1.7 7.7,-4.6 10.3,-7.6 0,0 2.694808,-3.798914 3.366473,-4.716371 1.086726,-1.585778 0.833527,-9.883629 0.833527,-9.883629 0,0 -0.04687,-7.884375 -0.703125,-8.68125 -1.171875,-0.796875 -11.796875,-1.21875 -11.796875,-1.21875 0,0 -11.666505,-2.667189 -12.511719,0.597656 0.02474,1.799678 0.01172,3.902344 0.01172,3.902344 0,0 -0.369141,3.580078 0.621094,4.300781 0.547851,0.462891 6.878906,0.199219 6.878906,0.199219 8.6,0 9.4,0.7 7.5,6.5 -2.4,7.3 -13.6,11.7 -22.7,9 -5.3,-1.6 -11.5,-7.1 -13.2,-11.8 -1.8999995,-5 -1.3,-13.8 1.2,-18.1 3.7,-6.5 8.8,-9.9 15.6,-10.4 7.4,-0.5000002 11.9,0.9 16.1,5.3 2.8,2.9 3.1,3.7 2,5 -1.8,2.2 -0.4,1.9 5.1,-1.3 2.7,-1.5 4.9,-3.3 4.9,-4.1 0,-0.8 -2.2,-3.6 -4.9,-6.2000002 -8.3,-8.00000001 -19.4,-10.7 -30.1,-7.4 z m 20.7,2.5 c 4.4,1.9 13.3,9.4000002 13.3,11.2000002 0,0.4 -1.2,1.4 -2.7,2.2 -2.6,1.3 -2.9,1.2 -7.5,-2.9 -7.4,-6.7000002 -15.9,-8.0000002 -24.3,-3.8 -14.1999995,7.1 -16.2999995,26.9 -3.8,37.2 8.6,7.1 19.5,6.7 27.9,-1.1 3.7,-3.5 4.4,-4.6 4.4,-7.9 0,-3.5 0.2,-3.9 2.8,-4 l 2.7,-0.2 -2.7,-0.4 c -1.8,-0.3 -2.8,-1.1 -2.8,-2.1 -0.1,-1.6 -0.2,-1.6 -1.4,0 -1,1.4 -2.8,1.8 -8,1.8 h -6.6 v -3.5 c 0,0 -0.198874,-2.240466 0.629767,-3.102252 0.729204,-0.629767 10.870233,-0.397748 10.870233,-0.397748 0,0 9.625,-0.09375 10.890625,1.21875 1.125,3.46875 0.65625,7.675 0.65625,7.675 -0.176254,7.886364 -0.346875,9.10625 -2.546875,12.10625 -3.5,4.8 -10.8,9.6 -16.7,11 -25.1,6.1 -45.4999995,-23.2 -30.9999995,-44.4 C 14.872336,2.3761698 29.372336,-1.9238302 42.472336,3.8761698 Z"
     sodipodi:nodetypes="cccccccccccsccccccccscccsccsccscccccscccccscccc" />
  <g
     aria-label="GRAPH"
     transform="matrix(0.96223239,0,0,1.03925,-25.227664,-9.1238302)"
     style="font-style:normal;font-weight:normal;font-size:14.11976242px;line-height:125%;font-family:sans-serif;letter-spacing:3.48000002px;word-spacing:0px;fill:#000000;fill-opacity:1;stroke:none;stroke-width:0.88248515px;stroke-linecap:butt;stroke-linejoin:miter;stroke-opacity:1"
     id="text4523">
    <g
       id="g4899"
       transform="translate(-3.799058)">
      <path
         id="path4529"
         style="letter-spacing:3.48000002px;stroke-width:0.88248515px"
         d="m 37.628341,81.107127 v -2.76466 h -2.275157 v -1.144473 h 3.65404 v 4.41932 q -0.806646,0.572237 -1.778759,0.868696 -0.972113,0.289566 -2.075219,0.289566 -2.413045,0 -3.77814,-1.406461 -1.358199,-1.413355 -1.358199,-3.929817 0,-2.523356 1.358199,-3.929816 1.365095,-1.413355 3.77814,-1.413355 1.006585,0 1.909753,0.248199 0.910063,0.248199 1.675343,0.730808 v 1.482299 q -0.772175,-0.65497 -1.640871,-0.985901 -0.868696,-0.330932 -1.82702,-0.330932 -1.88907,0 -2.840499,1.054845 -0.944535,1.054846 -0.944535,3.143853 0,2.082114 0.944535,3.136959 0.951429,1.054846 2.840499,1.054846 0.737703,0 1.316833,-0.1241 0.579131,-0.130993 1.041057,-0.399876 z"
         inkscape:connector-curvature="0" />
      <path
         sodipodi:nodetypes="cccccccsccccsssccccscscsc"
         inkscape:connector-curvature="0"
         id="path4531"
         style="letter-spacing:3.48000002px;stroke-width:0.88248515px"
         d="m 49.919404,77.749547 c 0.298758,0.101118 0.811256,0.411748 1.091629,0.74268 0.284969,0.330932 0.662827,0.760162 0.631975,1.270489 l 0.03861,2.795721 -1.4032,0.0172 -0.03497,-2.640561 c 0.01284,-0.67224 -0.671063,-1.146771 -0.992802,-1.371988 -0.317143,-0.225217 -0.751491,-0.337826 -1.303044,-0.337826 H 46.43083 v 4.350376 H 45.038158 V 72.282276 h 3.143854 c 1.176647,0 2.054535,0.245901 2.633666,0.737702 0.579131,0.491802 0.868697,1.234101 0.868697,2.226896 0,0.648075 -0.151677,1.18584 -0.455032,1.613294 -0.298758,0.427453 -0.735404,0.723913 -1.309939,0.889379 z M 46.43083,73.426749 v 3.65404 h 1.751182 c 0.671056,0 1.176646,-0.153975 1.516771,-0.461926 0.344721,-0.312547 0.517081,-0.769876 0.517081,-1.371989 0,-0.602112 -0.17236,-1.054845 -0.517081,-1.358199 -0.340125,-0.307951 -0.845715,-0.461926 -1.516771,-0.461926 z" />
      <path
         sodipodi:nodetypes="cccccccccccc"
         inkscape:connector-curvature="0"
         d="m 77.505859,100.1582 -5.041015,14.26368 h 1.882812 l 1.203125,-3.65821 0.54439,-1.61669 2.423828,-7.09766 2.433594,7.09766 c 0.557431,1.61127 0,0 0.557431,1.61127 l 1.203126,3.6582 h 1.857421 L 79.53125,100.1582 Z"
         style="letter-spacing:3.48000002px;stroke-width:1.17664683px"
         transform="scale(0.77943749,0.72167428)"
         id="path4533" />
      <path
         id="path4535"
         style="letter-spacing:3.48000002px;stroke-width:0.88248515px"
         d="m 72.28153,73.426749 v 3.867767 h 1.751181 q 0.972113,0 1.502983,-0.503293 0.53087,-0.503292 0.53087,-1.434038 0,-0.923852 -0.53087,-1.427144 -0.53087,-0.503292 -1.502983,-0.503292 z m -1.392672,-1.144473 h 3.143853 q 1.730498,0 2.612984,0.785963 0.889379,0.779069 0.889379,2.288946 0,1.523666 -0.889379,2.302735 -0.882486,0.779069 -2.612984,0.779069 H 72.28153 v 4.136649 h -1.392672 z"
         inkscape:connector-curvature="0" />
      <path
         id="path4537"
         style="letter-spacing:3.48000002px;stroke-width:0.88248515px"
         d="m 82.890353,72.282276 h 1.392672 v 4.219382 h 5.060501 v -4.219382 h 1.392672 v 10.293362 h -1.392672 v -4.901929 h -5.060501 v 4.901929 h -1.392672 z"
         inkscape:connector-curvature="0" />
    </g>
    <g
       id="g4910">
      <g
         aria-label="IC.ORG"
         transform="scale(1.03925,0.96223238)"
         style="font-style:normal;font-weight:normal;font-size:12px;line-height:125%;font-family:sans-serif;letter-spacing:0px;word-spacing:0px;fill:#000000;fill-opacity:1;stroke:none;stroke-width:0.75px;stroke-linecap:butt;stroke-linejoin:miter;stroke-opacity:1"
         id="text4903">
        <path
           d="m 40.882103,89.697624 h 0.789062 v 5.832031 h -0.789062 z"
           style="font-size:8px;stroke-width:0.75px"
           id="path5332"
           inkscape:connector-curvature="0" />
        <path
           d="m 47.608665,90.146843 v 0.832031 q -0.398437,-0.371094 -0.851562,-0.554687 -0.449219,-0.183594 -0.957031,-0.183594 -1,0 -1.53125,0.613281 -0.53125,0.609375 -0.53125,1.765625 0,1.152344 0.53125,1.765625 0.53125,0.609375 1.53125,0.609375 0.507812,0 0.957031,-0.183594 0.453125,-0.183593 0.851562,-0.554687 v 0.824219 q -0.414062,0.28125 -0.878906,0.421875 -0.460937,0.140625 -0.976562,0.140625 -1.324219,0 -2.085938,-0.808594 -0.761719,-0.8125 -0.761719,-2.214844 0,-1.40625 0.761719,-2.214844 0.761719,-0.8125 2.085938,-0.8125 0.523437,0 0.984375,0.140625 0.464843,0.136719 0.871093,0.414063 z"
           style="font-size:8px;stroke-width:0.75px"
           id="path5334"
           inkscape:connector-curvature="0" />
        <path
           d="m 48.90554,94.537468 h 0.824219 v 0.992187 H 48.90554 Z"
           style="font-size:8px;stroke-width:0.75px"
           id="path5336"
           inkscape:connector-curvature="0" />
        <path
           d="m 53.74929,90.23278 q -0.859375,0 -1.367187,0.640625 -0.503906,0.640625 -0.503906,1.746094 0,1.101563 0.503906,1.742188 0.507812,0.640625 1.367187,0.640625 0.859375,0 1.359375,-0.640625 0.503907,-0.640625 0.503907,-1.742188 0,-1.105469 -0.503907,-1.746094 -0.5,-0.640625 -1.359375,-0.640625 z m 0,-0.640625 q 1.226563,0 1.960938,0.824219 0.734375,0.820313 0.734375,2.203125 0,1.378906 -0.734375,2.203125 -0.734375,0.820313 -1.960938,0.820313 -1.230468,0 -1.96875,-0.820313 -0.734375,-0.820312 -0.734375,-2.203125 0,-1.382812 0.734375,-2.203125 0.738282,-0.824219 1.96875,-0.824219 z"
           style="font-size:8px;stroke-width:0.75px"
           id="path5338"
           inkscape:connector-curvature="0" />
        <path
           d="m 60.444603,92.79528 q 0.253906,0.08594 0.492187,0.367188 0.242188,0.28125 0.484375,0.773437 l 0.800782,1.59375 H 61.37429 l -0.746093,-1.496093 q -0.289063,-0.585938 -0.5625,-0.777344 -0.269532,-0.191406 -0.738282,-0.191406 H 58.46804 v 2.464843 h -0.789062 v -5.832031 h 1.78125 q 1,0 1.492187,0.417969 0.492188,0.417969 0.492188,1.261719 0,0.550781 -0.257813,0.914062 -0.253906,0.363281 -0.742187,0.503906 z M 58.46804,90.346062 v 2.070312 h 0.992188 q 0.570312,0 0.859375,-0.261719 0.292969,-0.265625 0.292969,-0.777343 0,-0.511719 -0.292969,-0.769532 -0.289063,-0.261718 -0.859375,-0.261718 z"
           style="font-size:8px;stroke-width:0.75px"
           id="path5340"
           inkscape:connector-curvature="0" />
        <path
           d="M 67.21804,94.697624 V 93.131218 H 65.928978 V 92.48278 h 2.070312 v 2.503907 q -0.457031,0.324218 -1.007812,0.492187 -0.550781,0.164063 -1.175781,0.164063 -1.367188,0 -2.140625,-0.796875 -0.769532,-0.800782 -0.769532,-2.226563 0,-1.429687 0.769532,-2.226562 0.773437,-0.800782 2.140625,-0.800782 0.570312,0 1.082031,0.140625 0.515625,0.140625 0.949219,0.414063 v 0.839844 q -0.4375,-0.371094 -0.929688,-0.558594 -0.492187,-0.1875 -1.035156,-0.1875 -1.070313,0 -1.609375,0.597656 -0.535156,0.597656 -0.535156,1.78125 0,1.179688 0.535156,1.777344 0.539062,0.597656 1.609375,0.597656 0.417969,0 0.746094,-0.07031 0.328125,-0.07422 0.589843,-0.226563 z"
           style="font-size:8px;stroke-width:0.75px"
           id="path5342"
           inkscape:connector-curvature="0" />
      </g>
      <path
         style="opacity:1;fill:#000000;fill-opacity:1;stroke:#000000;stroke-width:0.45260832;stroke-linecap:round;stroke-linejoin:round;stroke-miterlimit:4;stroke-dasharray:none"
         d="m 56.216871,89.109001 a 0.28678343,0.26607817 0 0 1 -0.286783,0.266078 0.28678343,0.26607817 0 0 1 -0.286783,-0.266078 0.28678343,0.26607817 0 0 1 0.286783,-0.266078 0.28678343,0.26607817 0 0 1 0.286783,0.266078 z"
         id="path4905"
         inkscape:connector-curvature="0" />
    </g>
    <rect
       style="opacity:1;fill:#005500;fill-opacity:1;stroke:#005500;stroke-width:0.48290992;stroke-linecap:round;stroke-linejoin:round;stroke-miterlimit:4;stroke-dasharray:none"
       id="rect5195"
       width="5.1885695"
       height="0.71813285"
       x="91.356941"
       y="76.957146"
       ry="0"
       rx="0" />
  </g>
</svg>
