<?xml version="1.0" encoding="utf-8"?>
<!-- Generator: Adobe Illustrator 15.0.0, SVG Export Plug-In . SVG Version: 6.00 Build 0)  -->
<!DOCTYPE svg PUBLIC "-//W3C//DTD SVG 1.1//EN" "http://www.w3.org/Graphics/SVG/1.1/DTD/svg11.dtd">
<svg version="1.1" id="Capa_1" xmlns="http://www.w3.org/2000/svg" xmlns:xlink="http://www.w3.org/1999/xlink" x="0px" y="0px"
	 width="841.89px" height="595.28px" viewBox="0 0 841.89 595.28" enable-background="new 0 0 841.89 595.28" xml:space="preserve">
<g>
	<defs>
		<rect id="SVGID_1_" width="841.89" height="595.28"/>
	</defs>
	<clipPath id="SVGID_2_">
		<use xlink:href="#SVGID_1_"  overflow="visible"/>
	</clipPath>
	<path clip-path="url(#SVGID_2_)" fill="#F48E28" d="M414.489,171.256c-0.637,0-1.266-0.156-1.848-0.498l-60.115-34.732
		c-1.762-1.018-2.367-3.28-1.353-5.047c1.023-1.762,3.281-2.371,5.043-1.348l60.117,34.732c1.769,1.022,2.371,3.28,1.351,5.047
		C416.999,170.594,415.768,171.256,414.489,171.256"/>
	<path clip-path="url(#SVGID_2_)" fill="#F48E28" d="M354.372,136.521c-1.611,0-3.092-1.064-3.553-2.693
		c-0.556-1.961,0.594-4.006,2.551-4.557l79.225-22.284c1.966-0.553,4.004,0.594,4.548,2.552c0.558,1.968-0.589,4.005-2.552,4.561
		l-79.219,22.286C355.046,136.479,354.708,136.521,354.372,136.521"/>
	<path clip-path="url(#SVGID_2_)" fill="#F48E28" d="M516.78,153.104c-0.615,0-1.258-0.152-1.832-0.49l-71.752-41.221
		c-1.768-1.018-2.379-3.277-1.359-5.047c1.018-1.771,3.27-2.383,5.043-1.363l71.75,41.228c1.77,1.012,2.377,3.276,1.357,5.041
		C519.308,152.439,518.062,153.104,516.78,153.104"/>
	<path clip-path="url(#SVGID_2_)" fill="#F48E28" d="M426.142,177.99c-1.623,0-3.111-1.074-3.563-2.717
		c-0.541-1.969,0.62-3.998,2.584-4.535l90.649-24.889c1.967-0.539,3.996,0.618,4.533,2.588c0.545,1.967-0.615,3.996-2.582,4.539
		l-90.642,24.883C426.784,177.949,426.464,177.99,426.142,177.99"/>
	<path clip-path="url(#SVGID_2_)" fill="#F48E28" d="M418.126,275.153c-0.627,0-1.266-0.166-1.848-0.492l-63.752-36.839
		c-1.761-1.02-2.367-3.283-1.353-5.049c1.023-1.769,3.281-2.367,5.043-1.351l63.756,36.838c1.767,1.02,2.373,3.284,1.355,5.045
		C420.636,274.491,419.399,275.153,418.126,275.153"/>
	<path clip-path="url(#SVGID_2_)" fill="#F48E28" d="M432.388,278.007c-1.623,0-3.111-1.078-3.559-2.727
		c-0.543-1.962,0.619-3.99,2.586-4.535l84.396-23.102c1.967-0.537,4.002,0.621,4.533,2.586c0.545,1.97-0.615,4-2.582,4.537
		l-84.396,23.104C433.038,277.962,432.708,278.007,432.388,278.007"/>
	<path clip-path="url(#SVGID_2_)" fill="#F48E28" d="M426.142,177.99c-0.428,0-0.859-0.072-1.289-0.232
		c-1.906-0.711-2.885-2.831-2.176-4.745l18.9-50.902c0.71-1.914,2.83-2.889,4.748-2.184c1.91,0.711,2.883,2.84,2.174,4.75
		l-18.896,50.907C429.05,177.074,427.64,177.99,426.142,177.99"/>
	<path clip-path="url(#SVGID_2_)" fill="#F48E28" d="M354.38,238.314c-1.057,0-2.102-0.445-2.838-1.309
		c-1.305-1.568-1.105-3.9,0.455-5.211l61.926-52.052c1.559-1.311,3.896-1.112,5.203,0.445c1.311,1.566,1.117,3.898-0.443,5.209
		l-61.938,52.053C356.06,238.036,355.218,238.314,354.38,238.314"/>
	<path clip-path="url(#SVGID_2_)" fill="#F48E28" d="M426.142,264.591h-0.012c-2.047,0-3.691-1.666-3.682-3.703l0.229-69.964
		c0.012-2.031,1.66-3.68,3.694-3.68h0.015c2.043,0.008,3.686,1.666,3.682,3.709l-0.234,69.962
		C429.83,262.943,428.177,264.591,426.142,264.591"/>
	<path clip-path="url(#SVGID_2_)" fill="#F48E28" d="M516.78,253.873c-2.035,0-3.688-1.654-3.688-3.697v-87.494
		c0-2.039,1.653-3.7,3.688-3.7c2.043,0,3.701,1.661,3.701,3.7v87.494C520.481,252.219,518.823,253.873,516.78,253.873"/>
	<path clip-path="url(#SVGID_2_)" fill="#F48E28" d="M354.38,238.314c-2.047,0-3.701-1.656-3.701-3.691v-85.784
		c0-2.033,1.654-3.683,3.701-3.683c2.039,0,3.686,1.65,3.686,3.683v85.784C358.066,236.659,356.419,238.314,354.38,238.314"/>
	<path clip-path="url(#SVGID_2_)" fill="#F48E28" d="M516.78,253.873c-0.822,0-1.648-0.277-2.34-0.846l-81.197-66.715
		c-1.576-1.298-1.803-3.623-0.502-5.197c1.287-1.576,3.619-1.81,5.197-0.508l81.191,66.717c1.586,1.291,1.803,3.621,0.508,5.197
		C518.911,253.412,517.854,253.873,516.78,253.873"/>
	<path clip-path="url(#SVGID_2_)" d="M396.444,448.546h-0.221c-1.951,0.113-3.543,0.789-4.813,2.049
		c-1.322,1.326-1.992,2.934-2.021,4.816v5.34c0,0.539,0.143,0.947,0.426,1.219c0.273,0.283,0.601,0.416,0.992,0.416
		c0.387,0,0.723-0.133,1-0.416c0.273-0.271,0.41-0.672,0.41-1.184v-5.345c0-0.091,0-0.173-0.01-0.255
		c0.047-1.014,0.45-1.883,1.19-2.611c0.803-0.809,1.771-1.211,2.902-1.211h0.063c1.132,0,2.103,0.402,2.896,1.211
		c0.75,0.729,1.147,1.598,1.199,2.611c-0.013,0.082-0.017,0.164-0.017,0.255v5.345c0,0.512,0.14,0.912,0.414,1.184
		c0.283,0.283,0.615,0.416,1,0.416c0.387,0,0.721-0.133,0.992-0.416c0.277-0.271,0.414-0.68,0.414-1.219v-5.34
		c-0.012-1.883-0.685-3.49-2.014-4.816C399.985,449.335,398.394,448.659,396.444,448.546 M350.584,457.958
		c-0.39,0-0.716,0.137-0.978,0.404c-0.016,0.004-0.022,0.014-0.037,0.023c-0.799,0.801-1.768,1.193-2.895,1.193
		c-1.133,0-2.101-0.404-2.906-1.203c-0.799-0.801-1.201-1.775-1.201-2.91c0-1.133,0.402-2.1,1.201-2.9
		c0.805-0.801,1.773-1.201,2.906-1.201c1.139,0,2.102,0.4,2.895,1.193h0.015c0.268,0.283,0.598,0.416,0.985,0.416
		c0.381,0,0.707-0.133,0.972-0.408c0.28-0.271,0.411-0.592,0.411-0.971c0-0.393-0.131-0.721-0.393-0.986
		c-0.018,0-0.02-0.008-0.02-0.014l0.02-0.012c-1.346-1.34-2.975-2.002-4.885-2.002c-1.904,0-3.535,0.674-4.883,2.014
		c-1.347,1.354-2.019,2.977-2.019,4.885c0,1.912,0.672,3.541,2.019,4.881c1.348,1.354,2.979,2.025,4.883,2.025
		c1.91,0,3.539-0.664,4.885-2.006c0.002-0.01,0.012-0.021,0.019-0.029c0.27-0.273,0.416-0.609,0.416-0.996s-0.146-0.717-0.416-0.988
		C351.304,458.095,350.97,457.958,350.584,457.958 M370.222,448.581c-1.908,0-3.539,0.674-4.885,2.014
		c-1.345,1.354-2.019,2.977-2.019,4.885c0,1.912,0.674,3.541,2.019,4.881c1.346,1.354,2.977,2.025,4.885,2.025
		c1.543,0,2.908-0.436,4.092-1.324c0,0.518,0.139,0.865,0.41,1.045c0.271,0.193,0.607,0.279,1.002,0.279
		c0.387,0,0.707-0.086,0.988-0.279c0.276-0.18,0.418-0.547,0.418-1.076v-5.619c-0.019-1.883-0.699-3.49-2.017-4.816
		C373.765,449.255,372.138,448.581,370.222,448.581 M374.313,455.441v0.524c-0.113,0.92-0.5,1.726-1.184,2.41
		c-0.797,0.799-1.771,1.203-2.908,1.203c-1.129,0-2.102-0.404-2.894-1.203c-0.801-0.801-1.2-1.775-1.2-2.91
		c0-1.133,0.399-2.1,1.2-2.9c0.792-0.801,1.765-1.201,2.894-1.201c1.137,0,2.111,0.402,2.908,1.211
		c0.744,0.729,1.139,1.598,1.19,2.611C374.313,455.269,374.313,455.351,374.313,455.441 M463.496,444.364
		c-0.392,0-0.728,0.139-1,0.416c-0.28,0.273-0.421,0.609-0.421,0.992c0,0.391,0.141,0.727,0.421,1.004
		c0.272,0.27,0.608,0.415,1,0.415c0.384,0,0.712-0.146,0.985-0.415c0.287-0.277,0.426-0.613,0.426-1.004
		c0-0.383-0.139-0.719-0.426-0.992C464.208,444.503,463.88,444.364,463.496,444.364 M422.38,448.581
		c-1.91,0-3.539,0.674-4.881,2.014c-1.345,1.354-2.025,2.977-2.025,4.885c0,1.912,0.68,3.541,2.025,4.881
		c1.342,1.354,2.971,2.025,4.881,2.025c1.545,0,2.902-0.436,4.086-1.324c0,0.518,0.137,0.865,0.41,1.045
		c0.279,0.193,0.615,0.279,1,0.279c0.389,0,0.719-0.086,0.998-0.279c0.275-0.18,0.412-0.547,0.412-1.076v-5.619
		c-0.021-1.883-0.691-3.49-2.018-4.816C425.923,449.255,424.29,448.581,422.38,448.581 M426.466,455.441v0.524
		c-0.1,0.92-0.5,1.726-1.18,2.41c-0.801,0.799-1.766,1.203-2.906,1.203c-1.134,0-2.1-0.404-2.898-1.203
		c-0.797-0.801-1.195-1.775-1.195-2.91c0-1.133,0.398-2.1,1.195-2.9c0.799-0.801,1.765-1.201,2.898-1.201
		c1.141,0,2.105,0.402,2.906,1.211c0.742,0.729,1.135,1.598,1.195,2.611C426.466,455.269,426.466,455.351,426.466,455.441
		 M511.421,454.114c-0.951-0.941-2.088-1.423-3.432-1.423c-0.197,0-0.352-0.06-0.488-0.192c-0.135-0.139-0.199-0.297-0.199-0.49
		c0-0.199,0.064-0.363,0.199-0.496c0.137-0.127,0.291-0.201,0.488-0.201c0.156,0,0.287-0.027,0.414-0.064
		c0.209-0.037,0.408-0.117,0.582-0.254l1.381-1.328c0.301-0.236,0.49-0.547,0.543-0.934c0.057-0.391-0.043-0.742-0.275-1.047
		c-0.236-0.307-0.543-0.49-0.938-0.547c-0.389-0.055-0.732,0.043-1.037,0.275l-1.232,1.184c-0.715,0.111-1.35,0.424-1.879,0.959
		c-0.677,0.676-1.021,1.488-1.021,2.453c0,0.949,0.345,1.766,1.021,2.441c0.672,0.674,1.482,1.016,2.441,1.016
		c0.576,0,1.061,0.203,1.467,0.613c0.408,0.4,0.615,0.895,0.615,1.463s-0.207,1.061-0.615,1.465
		c-0.406,0.408-0.891,0.609-1.467,0.609c-0.562,0-1.062-0.201-1.467-0.609c-0.403-0.404-0.611-0.896-0.611-1.465
		c0-0.387-0.127-0.713-0.398-0.982c-0.267-0.268-0.586-0.396-0.986-0.396c-0.373,0-0.701,0.129-0.969,0.396
		c-0.271,0.27-0.408,0.596-0.408,0.982c0,1.338,0.469,2.48,1.414,3.43c0.949,0.939,2.094,1.414,3.426,1.414
		c1.344,0,2.48-0.475,3.432-1.414c0.943-0.949,1.409-2.092,1.409-3.43C512.83,456.208,512.364,455.06,511.421,454.114
		 M483.985,448.581c-1.922,0-3.549,0.674-4.893,2.014c-1.349,1.354-2.021,2.977-2.021,4.885c0,1.912,0.673,3.541,2.021,4.881
		c1.344,1.354,2.971,2.025,4.893,2.025c1.533,0,2.891-0.436,4.07-1.324c0,0.518,0.147,0.865,0.418,1.045
		c0.277,0.193,0.611,0.279,0.994,0.279c0.391,0,0.729-0.086,1.006-0.279c0.27-0.18,0.414-0.547,0.414-1.076v-5.619
		c-0.025-1.883-0.691-3.49-2.021-4.816C487.519,449.255,485.888,448.581,483.985,448.581 M488.056,455.441v0.524
		c-0.098,0.92-0.488,1.726-1.18,2.41c-0.799,0.799-1.764,1.203-2.891,1.203c-1.145,0-2.111-0.404-2.912-1.203
		c-0.795-0.801-1.193-1.775-1.193-2.91c0-1.133,0.398-2.1,1.193-2.9c0.801-0.801,1.768-1.201,2.912-1.201
		c1.127,0,2.092,0.402,2.891,1.211c0.738,0.729,1.146,1.598,1.201,2.611C488.067,455.269,488.056,455.351,488.056,455.441
		 M463.496,448.489c-0.392,0-0.728,0.131-1,0.418c-0.28,0.277-0.421,0.609-0.421,0.992v11.078c0,0.385,0.141,0.721,0.421,0.992
		c0.272,0.283,0.608,0.416,1,0.416c0.384,0,0.712-0.133,0.985-0.416c0.287-0.271,0.426-0.607,0.426-0.992v-11.078
		c0-0.383-0.139-0.715-0.426-0.992C464.208,448.62,463.88,448.489,463.496,448.489 M448.474,448.546
		c-1.994,0.092-3.627,0.781-4.902,2.049c-1.332,1.326-1.994,2.934-2.018,4.816v5.34c0,0.539,0.135,0.947,0.414,1.219
		c0.271,0.283,0.609,0.416,0.996,0.416c0.381,0,0.719-0.133,0.998-0.416c0.273-0.271,0.412-0.672,0.412-1.184v-5.345
		c0-0.091-0.005-0.173-0.014-0.255c0.057-1.014,0.449-1.883,1.195-2.611c0.795-0.809,1.764-1.211,2.906-1.211h0.012
		c0.383,0,0.719-0.137,1-0.408c0.275-0.281,0.41-0.611,0.41-0.99c0-0.395-0.135-0.729-0.41-1.004
		C449.192,448.685,448.856,448.546,448.474,448.546"/>
	<path clip-path="url(#SVGID_2_)" d="M362.779,294.198c-13.381,0-24.787,4.722-34.229,14.158
		c-9.308,9.312-14.029,20.553-14.158,33.748v77.774c0,2.72,0.978,5.04,2.912,6.985c1.938,1.938,4.266,2.904,6.982,2.904
		c2.713,0,5.045-0.967,6.987-2.904c1.93-1.945,2.908-4.266,2.908-6.985v-38.21c8.273,6.209,17.807,9.314,28.598,9.314
		c13.384,0,24.802-4.717,34.238-14.158s14.156-20.852,14.156-34.232c0-13.385-4.72-24.795-14.156-34.236
		C387.581,298.92,376.163,294.198,362.779,294.198 M383.099,362.858c-5.584,5.627-12.352,8.438-20.32,8.438
		c-7.946,0-14.731-2.811-20.36-8.438c-4.789-4.779-7.531-10.406-8.238-16.871v-3.689c0-0.584-0.033-1.166-0.1-1.742
		c0.385-7.117,3.164-13.256,8.338-18.426c5.629-5.561,12.414-8.338,20.36-8.338c7.968,0,14.736,2.795,20.32,8.387
		c5.594,5.592,8.385,12.365,8.385,20.322C391.483,350.45,388.692,357.229,383.099,362.858"/>
	<path clip-path="url(#SVGID_2_)" d="M724.606,308.356c-8.793-8.783-20.008-13.57-33.646-14.35h-1.562
		c-13.635,0.78-24.848,5.567-33.644,14.35c-9.308,9.313-14.028,20.553-14.161,33.748v37.436c0,3.755,0.975,6.594,2.911,8.531
		c1.942,1.947,4.261,2.912,6.981,2.912c2.717,0,5.047-0.965,6.982-2.912c1.943-1.938,2.909-4.717,2.909-8.344v-37.43
		c0-0.584-0.034-1.166-0.099-1.742c0.389-7.117,3.174-13.223,8.348-18.322c5.617-5.629,12.406-8.441,20.354-8.441h0.391
		c7.963,0,14.74,2.812,20.373,8.441c5.164,5.1,7.953,11.205,8.334,18.322c-0.062,0.576-0.096,1.158-0.096,1.742v37.43
		c0,3.627,0.969,6.406,2.904,8.344c1.945,1.947,4.275,2.912,6.986,2.912s5.047-0.965,6.992-2.912c1.928-1.938,2.9-4.776,2.9-8.531
		v-37.436C738.638,328.909,733.919,317.67,724.606,308.356"/>
	<path clip-path="url(#SVGID_2_)" d="M199.565,253.268c-5.653-1.369-11.358,2.162-12.698,7.837
		c-1.35,5.666,2.166,11.361,7.842,12.701c12.615,2.99,23.307,10.713,30.121,21.746c6.803,11.035,8.908,24.062,5.916,36.678
		c-2.989,12.619-10.708,23.316-21.742,30.119c-11.04,6.815-24.053,8.922-36.684,5.93c-12.615-2.986-23.309-10.707-30.117-21.746
		c-6.806-11.043-8.915-24.062-5.928-36.684c3.988-16.807,16.76-30.346,33.326-35.322c5.583-1.674,8.75-7.565,7.074-13.149
		c-1.673-5.577-7.547-8.733-13.15-7.065c-23.758,7.145-42.076,26.559-47.787,50.679c-4.285,18.098-1.272,36.791,8.502,52.625
		c9.767,15.832,25.125,26.918,43.219,31.201c5.377,1.273,10.802,1.902,16.193,1.902c12.756,0,25.301-3.535,36.433-10.398
		c15.831-9.771,26.915-25.121,31.2-43.221c4.292-18.109,1.277-36.795-8.498-52.631C233.029,268.632,217.671,257.555,199.565,253.268
		"/>
	<path clip-path="url(#SVGID_2_)" d="M549.749,299.962c-23.85-13.615-54.336-5.299-67.969,18.557
		c-13.619,23.854-5.291,54.338,18.555,67.959c7.732,4.414,16.285,6.568,24.773,6.568c11.799,0,23.471-4.176,32.639-12.24
		l4.992-4.135c4.018-3.324,4.59-9.277,1.268-13.293c-3.328-4.023-9.281-4.58-13.303-1.256l-5.211,4.318
		c-9.926,8.729-24.316,10.193-35.793,3.635c-14.811-8.455-19.972-27.385-11.52-42.197c8.457-14.803,27.398-19.977,42.203-11.512
		c6.789,3.877,11.766,10.162,14.107,17.432l-41.906,0.619c-5.219,0.094-9.367,4.395-9.27,9.613c0.09,5.154,4.301,9.268,9.434,9.268
		h0.174l52.66-0.818c5.166-0.088,9.303-4.316,9.283-9.482C574.771,325.251,565.149,308.757,549.749,299.962"/>
</g>
</svg>
